<?xml version="1.0" standalone="no"?>
<!DOCTYPE svg PUBLIC "-//W3C//DTD SVG 20010904//EN"
 "http://www.w3.org/TR/2001/REC-SVG-20010904/DTD/svg10.dtd">
<svg version="1.0" xmlns="http://www.w3.org/2000/svg"
 width="800.000000pt" height="600.000000pt" viewBox="0 0 800.000000 600.000000"
 preserveAspectRatio="xMidYMid meet">
<metadata>
Created by potrace 1.16, written by Peter Selinger 2001-2019
</metadata>
<g transform="translate(0.000000,600.000000) scale(0.100000,-0.100000)"
fill="#000000" stroke="none">
<path d="M0 3000 l0 -3000 4000 0 4000 0 0 3000 0 3000 -4000 0 -4000 0 0
-3000z m2470 1590 c23 -23 24 -33 9 -62 -8 -14 -8 -23 0 -31 16 -16 13 -58 -6
-79 -20 -23 -85 -24 -107 -2 -23 22 -20 54 4 54 11 0 20 -6 20 -14 0 -20 31
-29 47 -13 18 17 6 47 -18 47 -25 0 -24 30 1 37 26 7 27 43 1 43 -10 0 -21 -7
-25 -15 -6 -18 -32 -20 -42 -3 -10 16 42 58 72 58 13 0 33 -9 44 -20z m174 -4
c-3 -8 -22 -16 -42 -18 -24 -2 -38 -9 -40 -19 -2 -12 4 -15 27 -11 54 8 87
-49 60 -101 -16 -30 -28 -37 -68 -37 -36 0 -71 23 -71 47 0 18 30 16 51 -3 25
-23 49 -11 49 25 0 31 -26 49 -44 31 -5 -5 -18 -10 -28 -10 -19 0 -23 23 -12
79 6 30 7 31 65 31 47 0 57 -3 53 -14z m-724 -262 c77 -43 113 -103 118 -194
6 -99 -25 -153 -112 -197 l-39 -20 37 -7 c59 -11 130 -86 151 -160 33 -112 -7
-249 -89 -305 -83 -57 -132 -65 -431 -65 l-270 -1 -3 493 -2 493 292 -3 293
-3 55 -31z m670 -313 l0 -88 -49 -7 c-81 -11 -144 -66 -161 -142 -5 -21 -10
-121 -10 -222 l0 -183 -82 3 -83 3 -3 353 -2 352 85 0 85 0 0 -47 0 -48 26 33
c38 48 72 63 187 81 4 0 7 -39 7 -88z m1808 -1177 c12 -8 22 -22 22 -30 0 -17
-31 -19 -47 -3 -16 16 -43 4 -43 -19 0 -15 6 -18 28 -14 38 5 62 -20 62 -63 0
-83 -101 -96 -131 -17 -17 43 -3 113 26 140 31 26 52 28 83 6z m-150 -11 c-2
-13 -14 -19 -41 -21 -42 -4 -51 -22 -10 -22 39 0 63 -27 63 -70 0 -46 -28 -74
-75 -74 -38 0 -65 18 -65 45 0 24 28 25 46 2 17 -24 49 -5 49 28 0 22 -3 24
-49 21 l-49 -2 7 31 c3 17 6 42 6 55 0 23 3 24 61 24 52 0 60 -2 57 -17z
m-737 -250 c73 -23 141 -91 157 -155 30 -119 -7 -214 -99 -255 l-40 -17 35
-13 c99 -34 156 -121 156 -238 0 -146 -58 -229 -190 -271 -45 -14 -105 -18
-332 -22 l-278 -4 0 496 0 496 269 0 c227 0 277 -3 322 -17z m762 -267 c66
-20 106 -53 131 -105 19 -42 21 -69 26 -306 3 -143 9 -268 14 -277 7 -16 0
-18 -83 -18 -73 0 -93 3 -96 15 -3 8 -7 21 -9 29 -3 10 -19 6 -67 -18 -72 -35
-183 -47 -251 -27 -86 26 -148 112 -148 206 0 71 17 112 65 154 51 45 77 55
230 86 173 35 165 31 165 65 0 51 -50 80 -137 80 -62 0 -100 -24 -114 -70 -11
-35 -16 -40 -33 -36 -12 3 -50 6 -85 6 l-64 0 6 34 c21 130 123 195 308 196
54 0 116 -6 142 -14z"/>
<path d="M1470 4090 l0 -121 149 3 c133 3 153 5 178 24 58 43 62 134 7 185
-24 23 -32 24 -180 27 l-154 3 0 -121z"/>
<path d="M1478 3824 c-5 -4 -8 -70 -8 -147 l0 -139 163 4 c186 4 218 14 244
76 18 43 13 110 -11 147 -32 48 -69 58 -231 63 -82 2 -153 1 -157 -4z"/>
<path d="M3110 2321 l0 -121 135 0 c95 0 146 4 170 14 78 33 88 154 16 203
-21 15 -53 19 -173 21 l-148 4 0 -121z"/>
<path d="M3110 1909 l0 -141 163 4 c178 3 210 12 237 64 21 39 18 118 -6 152
-40 53 -74 62 -241 62 l-153 0 0 -141z"/>
<path d="M4239 1945 c-4 -3 -50 -15 -103 -25 -141 -29 -166 -45 -166 -108 1
-76 110 -108 206 -62 61 30 76 57 72 136 -2 36 -6 63 -9 59z"/>
</g>
</svg>
